Coordinates
version=1
nRows=24
nColumns=38
inDegrees=no

Units are S.I. units (second, meters, Newtons, ...)
If the header above contains a line with 'inDegrees', this indicates whether rotational values are in degrees (yes) or radians (no).

endheader
time	pelvis_tilt	pelvis_list	pelvis_rotation	pelvis_tx	pelvis_ty	pelvis_tz	hip_flexion_r	hip_adduction_r	hip_rotation_r	knee_angle_r	ankle_angle_r	subtalar_angle_r	mtp_angle_r	hip_flexion_l	hip_adduction_l	hip_rotation_l	knee_angle_l	ankle_angle_l	subtalar_angle_l	mtp_angle_l	lumbar_extension	lumbar_bending	lumbar_rotation	arm_flex_r	arm_add_r	arm_rot_r	elbow_flex_r	pro_sup_r	wrist_flex_r	wrist_dev_r	arm_flex_l	arm_add_l	arm_rot_l	elbow_flex_l	pro_sup_l	wrist_flex_l	wrist_dev_l
15	2.23983	1.50308	-0.335229	0.659625	-0.418645	0.934664	0.222935	-0.0455559	-0.151188	0.333049	-0.340394	0	0	0.055801	-0.113004	0.0170461	0.588169	-0.118299	0	0	-0.252612	0.135095	0.0289205	0.678614	-0.578052	0.197163	1.38647	1.5708	0	0	0.392427	-0.871644	0.0840005	0.974887	1.5708	0	0
15.01	2.2447	1.50548	-0.340332	0.656981	-0.424751	0.934542	0.223072	-0.052726	-0.151143	0.319666	-0.348766	0	0	0.0624466	-0.10602	0.0125086	0.58872	-0.11975	0	0	-0.254917	0.132449	0.0278652	0.677588	-0.583015	0.193702	1.39001	1.5708	0	0	0.400555	-0.869105	0.0922742	0.973383	1.5708	0	0
15.02	2.2303	1.508	-0.327148	0.654396	-0.430789	0.934313	0.224958	-0.0596926	-0.150102	0.307702	-0.355621	0	0	0.0697303	-0.0992129	0.00850775	0.588747	-0.120245	0	0	-0.255756	0.130098	0.0269557	0.677094	-0.587438	0.191432	1.39301	1.5708	0	0	0.406594	-0.867011	0.0989298	0.972374	1.5708	0	0
15.03	2.2107	1.51044	-0.309715	0.651846	-0.436772	0.934041	0.227483	-0.0666731	-0.148593	0.297149	-0.360381	0	0	0.0761604	-0.0922748	0.00534453	0.587464	-0.120152	0	0	-0.256242	0.127966	0.0266234	0.67722	-0.59189	0.190444	1.39565	1.5708	0	0	0.411816	-0.864973	0.104886	0.971253	1.5708	0	0
15.04	2.197	1.51251	-0.298941	0.649347	-0.442638	0.93377	0.229418	-0.0732323	-0.14659	0.287162	-0.362578	0	0	0.0814363	-0.0856301	0.00200361	0.585697	-0.11982	0	0	-0.257209	0.125357	0.0270327	0.676888	-0.596481	0.189314	1.39819	1.5708	0	0	0.415667	-0.86411	0.110293	0.972627	1.5708	0	0
15.05	2.19065	1.51408	-0.29617	0.646872	-0.448397	0.933518	0.230482	-0.0791372	-0.143854	0.277123	-0.363387	0	0	0.0860249	-0.0795901	-0.00195493	0.584063	-0.11941	0	0	-0.25852	0.123246	0.0279495	0.676637	-0.600711	0.18832	1.40048	1.5708	0	0	0.418677	-0.863151	0.114679	0.974184	1.5708	0	0
15.06	2.19035	1.51541	-0.299835	0.644379	-0.4541	0.933231	0.231452	-0.0851582	-0.141487	0.267791	-0.363202	0	0	0.0905663	-0.0739098	-0.00669677	0.583092	-0.119184	0	0	-0.2603	0.121666	0.0293294	0.676557	-0.605296	0.187525	1.40332	1.5708	0	0	0.421207	-0.862127	0.118367	0.975737	1.5708	0	0
15.07	2.16999	1.51642	-0.284218	0.641978	-0.459675	0.932803	0.232933	-0.0900308	-0.136611	0.256998	-0.362799	0	0	0.0969458	-0.0692468	-0.0133343	0.583688	-0.1191	0	0	-0.260532	0.120422	0.0337114	0.673273	-0.611951	0.183685	1.40794	1.5708	0	0	0.427576	-0.859808	0.126571	0.975589	1.5708	0	0
15.08	2.15032	1.51703	-0.2692	0.639506	-0.465216	0.932326	0.235277	-0.0949164	-0.133098	0.249511	-0.360302	0	0	0.103445	-0.064767	-0.0200827	0.584826	-0.118334	0	0	-0.261002	0.12065	0.0351297	0.674962	-0.616799	0.185315	1.41022	1.5708	0	0	0.426284	-0.85854	0.125896	0.978014	1.5708	0	0
15.09	2.13067	1.51729	-0.254547	0.637165	-0.470639	0.931741	0.238079	-0.0994699	-0.12903	0.243302	-0.357389	0	0	0.109822	-0.0604952	-0.0262079	0.586413	-0.117023	0	0	-0.261031	0.121302	0.0366452	0.677556	-0.62135	0.188043	1.41154	1.5708	0	0	0.424212	-0.857518	0.12438	0.98026	1.5708	0	0
15.1	2.11408	1.51708	-0.243641	0.634889	-0.475945	0.931183	0.24172	-0.10352	-0.126407	0.239169	-0.354198	0	0	0.1156	-0.056336	-0.0317633	0.587842	-0.1158	0	0	-0.261047	0.122483	0.0387834	0.68037	-0.626018	0.191958	1.41272	1.5708	0	0	0.421207	-0.856297	0.121757	0.982417	1.5708	0	0
15.11	2.09479	1.51662	-0.230439	0.632675	-0.481192	0.93063	0.246975	-0.10725	-0.124915	0.238093	-0.35021	0	0	0.121723	-0.0526807	-0.0376677	0.589964	-0.114705	0	0	-0.260816	0.124152	0.0413021	0.683515	-0.63062	0.196457	1.41371	1.5708	0	0	0.417345	-0.854747	0.117849	0.984408	1.5708	0	0
15.12	2.08904	1.51599	-0.231398	0.63062	-0.486366	0.930148	0.253308	-0.111192	-0.12505	0.241019	-0.346853	0	0	0.127181	-0.049077	-0.0423986	0.592587	-0.114029	0	0	-0.26136	0.125794	0.0445264	0.686757	-0.635113	0.200944	1.41474	1.5708	0	0	0.413489	-0.853263	0.113723	0.98618	1.5708	0	0
15.13	2.10252	1.51496	-0.25218	0.628749	-0.491382	0.929833	0.259291	-0.11456	-0.126534	0.247467	-0.344104	0	0	0.131381	-0.0455802	-0.0453805	0.595156	-0.113753	0	0	-0.262961	0.127361	0.0482572	0.689925	-0.639127	0.205545	1.41564	1.5708	0	0	0.409287	-0.852092	0.109289	0.987716	1.5708	0	0
15.14	2.16464	1.51272	-0.321104	0.62697	-0.496284	0.929925	0.260714	-0.117149	-0.130014	0.25349	-0.349846	0	0	0.132456	-0.0428564	-0.048579	0.59743	-0.114096	0	0	-0.267548	0.128909	0.0533782	0.69117	-0.643911	0.207791	1.41723	1.5708	0	0	0.40961	-0.85043	0.109934	0.986871	1.5708	0	0
15.15	2.17468	1.51207	-0.337901	0.625303	-0.501072	0.929834	0.27069	-0.121377	-0.137633	0.276495	-0.338839	0	0	0.138139	-0.0398747	-0.0525589	0.601875	-0.115092	0	0	-0.268672	0.129996	0.0546632	0.695683	-0.645335	0.214807	1.41659	1.5708	0	0	0.400438	-0.850061	0.0997104	0.989485	1.5708	0	0
15.16	2.21324	1.51053	-0.382691	0.623716	-0.505775	0.930012	0.277837	-0.125316	-0.145356	0.300384	-0.334288	0	0	0.14171	-0.0375183	-0.0568742	0.605984	-0.117162	0	0	-0.271312	0.131004	0.0573706	0.697623	-0.647662	0.218869	1.41653	1.5708	0	0	0.396088	-0.849237	0.0955334	0.989701	1.5708	0	0
15.17	2.25226	1.50835	-0.427715	0.622201	-0.510365	0.930318	0.284527	-0.128334	-0.153728	0.328772	-0.328732	0	0	0.144658	-0.0357527	-0.061038	0.609738	-0.119851	0	0	-0.274096	0.13242	0.0601199	0.699063	-0.649902	0.222775	1.41632	1.5708	0	0	0.392007	-0.848342	0.0919413	0.989198	1.5708	0	0
15.18	2.28591	1.50558	-0.467125	0.620745	-0.514827	0.930664	0.291603	-0.130924	-0.163582	0.363098	-0.320482	0	0	0.147236	-0.0346148	-0.0647082	0.613193	-0.12252	0	0	-0.276571	0.134398	0.0627319	0.70015	-0.651804	0.226599	1.41583	1.5708	0	0	0.387908	-0.847598	0.0891285	0.988145	1.5708	0	0
15.19	2.32026	1.50202	-0.507058	0.619364	-0.51913	0.931109	0.297581	-0.13286	-0.174274	0.400373	-0.312312	0	0	0.148735	-0.0342206	-0.0681451	0.615992	-0.124966	0	0	-0.279302	0.136979	0.0652612	0.700809	-0.65348	0.230551	1.41554	1.5708	0	0	0.384109	-0.846975	0.0873801	0.986315	1.5708	0	0
15.2	2.34972	1.49802	-0.541181	0.618033	-0.523305	0.93163	0.301917	-0.134087	-0.184535	0.43835	-0.304649	0	0	0.149976	-0.0343274	-0.0709929	0.618358	-0.127954	0	0	-0.281764	0.139913	0.0670348	0.700989	-0.654833	0.234354	1.41508	1.5708	0	0	0.380423	-0.846657	0.0862686	0.984172	1.5708	0	0
15.21	2.37251	1.49417	-0.567816	0.61672	-0.527295	0.932106	0.305232	-0.135201	-0.193692	0.476453	-0.298073	0	0	0.151412	-0.0345342	-0.07347	0.620664	-0.130944	0	0	-0.28319	0.142761	0.067844	0.700795	-0.655927	0.238575	1.41418	1.5708	0	0	0.376095	-0.84696	0.0854013	0.982291	1.5708	0	0
15.22	2.38563	1.48998	-0.585389	0.615614	-0.531236	0.93257	0.308334	-0.134874	-0.2002	0.51512	-0.291942	0	0	0.152929	-0.0360455	-0.0773179	0.622739	-0.1336	0	0	-0.284215	0.146028	0.0688108	0.701545	-0.656464	0.244163	1.41241	1.5708	0	0	0.370752	-0.847617	0.0836182	0.980198	1.5708	0	0
15.23	2.39602	1.48582	-0.59975	0.614593	-0.535105	0.933006	0.310353	-0.134133	-0.206077	0.553488	-0.286312	0	0	0.154237	-0.0380132	-0.0818415	0.624418	-0.136253	0	0	-0.285163	0.14864	0.0693823	0.701244	-0.656782	0.248602	1.41084	1.5708	0	0	0.364481	-0.84952	0.0814838	0.980303	1.5708	0	0
